# xmcd
#
# Track frame offsets:
#	150
#	11768
#	28756
#	44935
#	57053
#	73145
#	82095
#	94826
#	110129
#	121242
#	133097
#	143550
#
# Disc length: 2080 seconds
#
# Revision: 1
# Processed by: cddbd v1.5.2PL0 Copyright (c) Steve Scherf et al.
# Submitted via: audiograbber 1.83.01
#
DISCID=b3081e0c
DTITLE=The Original Five - Wipe Away Those Years
DYEAR=2019
DGENRE=Bluegrass
TTITLE0=Wipe Away Those Years
TTITLE1=If I Die Tonight
TTITLE2=Big Old Machine
TTITLE3=Empty House
TTITLE4=Gisslevikspolskan
TTITLE5=Mercedes Benz
TTITLE6=In That Moment
TTITLE7=If That's The Way You Feel
TTITLE8=The Most Eligible Drunk In Town
TTITLE9=Ekman
TTITLE10=We Should Have Stayed On The Dance Floor
TTITLE11=Leaning On The Everlasting Arms
EXTD=
EXTT0=
EXTT1=
EXTT2=
EXTT3=
EXTT4=
EXTT5=
EXTT6=
EXTT7=
EXTT8=
EXTT9=
EXTT10=
EXTT11=
PLAYORDER=
